<svg width="2284.2" height="876.84" version="1.1" viewBox="0 0 604.36 232" xmlns="http://www.w3.org/2000/svg">
 <g transform="translate(306.34 -21.553)">
  <g fill="none" stroke="#fff" stroke-linecap="round" stroke-linejoin="round" stroke-width="7.9375">
   <path d="m-119.77 115.53a84.403 84.403 0 0 1 0 43.69" style="font-variation-settings:'wdth' 100, 'wght' 400"/>
   <path d="m-179.45 55.849a84.403 84.403 0 0 1 37.837 21.845" style="font-variation-settings:'wdth' 100, 'wght' 400"/>
   <path d="m-282.82 159.22a84.403 84.403 0 0 1 0-43.69" style="font-variation-settings:'wdth' 100, 'wght' 400"/>
   <path d="m-223.14 218.9a84.403 84.403 0 0 1-37.837-21.845" style="font-variation-settings:'wdth' 100, 'wght' 400"/>
   <path d="m-141.61 197.06a84.403 84.403 0 0 1-37.837 21.845" style="font-variation-settings:'wdth' 100, 'wght' 400"/>
   <path d="m-260.98 77.694a84.403 84.403 0 0 1 37.837-21.845" style="font-variation-settings:'wdth' 100, 'wght' 400"/>
   <circle cx="-200.94" cy="222.49" r="20.483" style="font-variation-settings:'wdth' 100, 'wght' 400"/>
   <circle transform="rotate(60)" cx="18.917" cy="328.19" r="20.483" style="font-variation-settings:'wdth' 100, 'wght' 400"/>
   <circle transform="rotate(120)" cx="220.39" cy="190.64" r="20.483" style="font-variation-settings:'wdth' 100, 'wght' 400"/>
   <circle transform="rotate(120)" cx="220.39" cy="190.64" r="20.483" style="font-variation-settings:'wdth' 100, 'wght' 400"/>
   <circle cx="-201.65" cy="52.973" r="20.836" style="font-variation-settings:'wdth' 100, 'wght' 400"/>
   <circle transform="rotate(120)" cx="219.68" cy="21.125" r="20.836" style="font-variation-settings:'wdth' 100, 'wght' 400"/>
   <circle transform="rotate(120)" cx="219.68" cy="21.125" r="20.836" style="font-variation-settings:'wdth' 100, 'wght' 400"/>
  </g>
  <circle transform="rotate(60)" cx="18.211" cy="158.68" r="20.836" fill="#3497ff" stroke="#3497ff" stroke-linecap="round" stroke-linejoin="round" stroke-width="7.9375" style="font-variation-settings:'wdth' 100, 'wght' 400"/>
  <text x="-66.549591" y="178.73146" font-family="Bahnschrift" font-size="114.98px" letter-spacing="0px" stroke-width=".57488" word-spacing="0px" style="font-variation-settings:'wdth' 100, 'wght' 400;line-height:1.25" xml:space="preserve"><tspan x="-66.549591" y="178.73146" font-family="Arial" font-size="114.98px" stroke-width=".57488" style="font-variant-caps:normal;font-variant-east-asian:normal;font-variant-ligatures:normal;font-variant-numeric:normal"><tspan fill="#ffffff">P-</tspan><tspan fill="#3497ff">O</tspan><tspan fill="#ffffff">NE</tspan></tspan></text>
  <circle cx="-201.54" cy="137.55" r="20.836" fill="none" stroke="#fff" stroke-linecap="round" stroke-linejoin="round" stroke-width="5.2917" style="font-variation-settings:'wdth' 100, 'wght' 400"/>
 </g>
</svg>
